<svg width="228" height="187" viewBox="0 0 228 187" fill="none" xmlns="http://www.w3.org/2000/svg">
<ellipse cx="114" cy="93.5" rx="114" ry="93.5" fill="#1F2CE3"/>
<path d="M92.1364 81C91.9545 78.7273 91.1023 76.9545 89.5795 75.6818C88.0795 74.4091 85.7955 73.7727 82.7273 73.7727C80.7727 73.7727 79.1705 74.0114 77.9205 74.4886C76.6932 74.9432 75.7841 75.5682 75.1932 76.3636C74.6023 77.1591 74.2955 78.0682 74.2727 79.0909C74.2273 79.9318 74.375 80.6932 74.7159 81.375C75.0795 82.0341 75.6477 82.6364 76.4205 83.1818C77.1932 83.7045 78.1818 84.1818 79.3864 84.6136C80.5909 85.0455 82.0227 85.4318 83.6818 85.7727L89.4091 87C93.2727 87.8182 96.5795 88.8977 99.3295 90.2386C102.08 91.5795 104.33 93.1591 106.08 94.9773C107.83 96.7727 109.114 98.7955 109.932 101.045C110.773 103.295 111.205 105.75 111.227 108.409C111.205 113 110.057 116.886 107.784 120.068C105.511 123.25 102.261 125.67 98.0341 127.33C93.8295 128.989 88.7727 129.818 82.8636 129.818C76.7955 129.818 71.5 128.92 66.9773 127.125C62.4773 125.33 58.9773 122.568 56.4773 118.841C54 115.091 52.75 110.295 52.7273 104.455H70.7273C70.8409 106.591 71.375 108.386 72.3295 109.841C73.2841 111.295 74.625 112.398 76.3523 113.148C78.1023 113.898 80.1818 114.273 82.5909 114.273C84.6136 114.273 86.3068 114.023 87.6705 113.523C89.0341 113.023 90.0682 112.33 90.7727 111.443C91.4773 110.557 91.8409 109.545 91.8636 108.409C91.8409 107.341 91.4886 106.409 90.8068 105.614C90.1477 104.795 89.0568 104.068 87.5341 103.432C86.0114 102.773 83.9545 102.159 81.3636 101.591L74.4091 100.091C68.2273 98.75 63.3523 96.5114 59.7841 93.375C56.2386 90.2159 54.4773 85.9091 54.5 80.4545C54.4773 76.0227 55.6591 72.1477 58.0455 68.8295C60.4545 65.4886 63.7841 62.8864 68.0341 61.0227C72.3068 59.1591 77.2045 58.2273 82.7273 58.2273C88.3636 58.2273 93.2386 59.1705 97.3523 61.0568C101.466 62.9432 104.636 65.6023 106.864 69.0341C109.114 72.4432 110.25 76.4318 110.273 81H92.1364ZM156.074 81C155.892 78.7273 155.04 76.9545 153.517 75.6818C152.017 74.4091 149.733 73.7727 146.665 73.7727C144.71 73.7727 143.108 74.0114 141.858 74.4886C140.631 74.9432 139.722 75.5682 139.131 76.3636C138.54 77.1591 138.233 78.0682 138.21 79.0909C138.165 79.9318 138.313 80.6932 138.653 81.375C139.017 82.0341 139.585 82.6364 140.358 83.1818C141.131 83.7045 142.119 84.1818 143.324 84.6136C144.528 85.0455 145.96 85.4318 147.619 85.7727L153.347 87C157.21 87.8182 160.517 88.8977 163.267 90.2386C166.017 91.5795 168.267 93.1591 170.017 94.9773C171.767 96.7727 173.051 98.7955 173.869 101.045C174.71 103.295 175.142 105.75 175.165 108.409C175.142 113 173.994 116.886 171.722 120.068C169.449 123.25 166.199 125.67 161.972 127.33C157.767 128.989 152.71 129.818 146.801 129.818C140.733 129.818 135.438 128.92 130.915 127.125C126.415 125.33 122.915 122.568 120.415 118.841C117.938 115.091 116.688 110.295 116.665 104.455H134.665C134.778 106.591 135.313 108.386 136.267 109.841C137.222 111.295 138.563 112.398 140.29 113.148C142.04 113.898 144.119 114.273 146.528 114.273C148.551 114.273 150.244 114.023 151.608 113.523C152.972 113.023 154.006 112.33 154.71 111.443C155.415 110.557 155.778 109.545 155.801 108.409C155.778 107.341 155.426 106.409 154.744 105.614C154.085 104.795 152.994 104.068 151.472 103.432C149.949 102.773 147.892 102.159 145.301 101.591L138.347 100.091C132.165 98.75 127.29 96.5114 123.722 93.375C120.176 90.2159 118.415 85.9091 118.438 80.4545C118.415 76.0227 119.597 72.1477 121.983 68.8295C124.392 65.4886 127.722 62.8864 131.972 61.0227C136.244 59.1591 141.142 58.2273 146.665 58.2273C152.301 58.2273 157.176 59.1705 161.29 61.0568C165.403 62.9432 168.574 65.6023 170.801 69.0341C173.051 72.4432 174.188 76.4318 174.21 81H156.074Z" fill="#C27878"/>
</svg>
