<svg width="236" height="195" viewBox="0 0 236 195" fill="none" xmlns="http://www.w3.org/2000/svg">
<g opacity="0.89" filter="url(#filter0_d_1_16)">
<ellipse cx="118" cy="93.5" rx="114" ry="93.5" fill="url(#paint0_linear_1_16)"/>
<path d="M96.1364 81C95.9545 78.7273 95.1023 76.9545 93.5795 75.6818C92.0795 74.4091 89.7955 73.7727 86.7273 73.7727C84.7727 73.7727 83.1705 74.0114 81.9205 74.4886C80.6932 74.9432 79.7841 75.5682 79.1932 76.3636C78.6023 77.1591 78.2955 78.0682 78.2727 79.0909C78.2273 79.9318 78.375 80.6932 78.7159 81.375C79.0795 82.0341 79.6477 82.6364 80.4205 83.1818C81.1932 83.7045 82.1818 84.1818 83.3864 84.6136C84.5909 85.0455 86.0227 85.4318 87.6818 85.7727L93.4091 87C97.2727 87.8182 100.58 88.8977 103.33 90.2386C106.08 91.5795 108.33 93.1591 110.08 94.9773C111.83 96.7727 113.114 98.7955 113.932 101.045C114.773 103.295 115.205 105.75 115.227 108.409C115.205 113 114.057 116.886 111.784 120.068C109.511 123.25 106.261 125.67 102.034 127.33C97.8295 128.989 92.7727 129.818 86.8636 129.818C80.7955 129.818 75.5 128.92 70.9773 127.125C66.4773 125.33 62.9773 122.568 60.4773 118.841C58 115.091 56.75 110.295 56.7273 104.455H74.7273C74.8409 106.591 75.375 108.386 76.3295 109.841C77.2841 111.295 78.625 112.398 80.3523 113.148C82.1023 113.898 84.1818 114.273 86.5909 114.273C88.6136 114.273 90.3068 114.023 91.6705 113.523C93.0341 113.023 94.0682 112.33 94.7727 111.443C95.4773 110.557 95.8409 109.545 95.8636 108.409C95.8409 107.341 95.4886 106.409 94.8068 105.614C94.1477 104.795 93.0568 104.068 91.5341 103.432C90.0114 102.773 87.9545 102.159 85.3636 101.591L78.4091 100.091C72.2273 98.75 67.3523 96.5114 63.7841 93.375C60.2386 90.2159 58.4773 85.9091 58.5 80.4545C58.4773 76.0227 59.6591 72.1477 62.0455 68.8295C64.4545 65.4886 67.7841 62.8864 72.0341 61.0227C76.3068 59.1591 81.2045 58.2273 86.7273 58.2273C92.3636 58.2273 97.2386 59.1705 101.352 61.0568C105.466 62.9432 108.636 65.6023 110.864 69.0341C113.114 72.4432 114.25 76.4318 114.273 81H96.1364ZM160.074 81C159.892 78.7273 159.04 76.9545 157.517 75.6818C156.017 74.4091 153.733 73.7727 150.665 73.7727C148.71 73.7727 147.108 74.0114 145.858 74.4886C144.631 74.9432 143.722 75.5682 143.131 76.3636C142.54 77.1591 142.233 78.0682 142.21 79.0909C142.165 79.9318 142.313 80.6932 142.653 81.375C143.017 82.0341 143.585 82.6364 144.358 83.1818C145.131 83.7045 146.119 84.1818 147.324 84.6136C148.528 85.0455 149.96 85.4318 151.619 85.7727L157.347 87C161.21 87.8182 164.517 88.8977 167.267 90.2386C170.017 91.5795 172.267 93.1591 174.017 94.9773C175.767 96.7727 177.051 98.7955 177.869 101.045C178.71 103.295 179.142 105.75 179.165 108.409C179.142 113 177.994 116.886 175.722 120.068C173.449 123.25 170.199 125.67 165.972 127.33C161.767 128.989 156.71 129.818 150.801 129.818C144.733 129.818 139.438 128.92 134.915 127.125C130.415 125.33 126.915 122.568 124.415 118.841C121.938 115.091 120.688 110.295 120.665 104.455H138.665C138.778 106.591 139.313 108.386 140.267 109.841C141.222 111.295 142.563 112.398 144.29 113.148C146.04 113.898 148.119 114.273 150.528 114.273C152.551 114.273 154.244 114.023 155.608 113.523C156.972 113.023 158.006 112.33 158.71 111.443C159.415 110.557 159.778 109.545 159.801 108.409C159.778 107.341 159.426 106.409 158.744 105.614C158.085 104.795 156.994 104.068 155.472 103.432C153.949 102.773 151.892 102.159 149.301 101.591L142.347 100.091C136.165 98.75 131.29 96.5114 127.722 93.375C124.176 90.2159 122.415 85.9091 122.438 80.4545C122.415 76.0227 123.597 72.1477 125.983 68.8295C128.392 65.4886 131.722 62.8864 135.972 61.0227C140.244 59.1591 145.142 58.2273 150.665 58.2273C156.301 58.2273 161.176 59.1705 165.29 61.0568C169.403 62.9432 172.574 65.6023 174.801 69.0341C177.051 72.4432 178.188 76.4318 178.21 81H160.074Z" fill="#FFF6F6"/>
</g>
<defs>
<filter id="filter0_d_1_16" x="0" y="0" width="236" height="195" filterUnits="userSpaceOnUse" color-interpolation-filters="sRGB">
<feFlood flood-opacity="0" result="BackgroundImageFix"/>
<feColorMatrix in="SourceAlpha" type="matrix" values="0 0 0 0 0 0 0 0 0 0 0 0 0 0 0 0 0 0 127 0" result="hardAlpha"/>
<feOffset dy="4"/>
<feGaussianBlur stdDeviation="2"/>
<feComposite in2="hardAlpha" operator="out"/>
<feColorMatrix type="matrix" values="0 0 0 0 0 0 0 0 0 0 0 0 0 0 0 0 0 0 0.25 0"/>
<feBlend mode="normal" in2="BackgroundImageFix" result="effect1_dropShadow_1_16"/>
<feBlend mode="normal" in="SourceGraphic" in2="effect1_dropShadow_1_16" result="shape"/>
</filter>
<linearGradient id="paint0_linear_1_16" x1="118" y1="0" x2="118" y2="187" gradientUnits="userSpaceOnUse">
<stop offset="0.149038" stop-color="#3B2323"/>
<stop offset="0.480769" stop-color="#0E0D09" stop-opacity="0.93"/>
<stop offset="0.701923" stop-color="#181614" stop-opacity="0.62"/>
</linearGradient>
</defs>
</svg>
