<svg width="128" height="116" viewBox="0 0 128 116" fill="none" xmlns="http://www.w3.org/2000/svg">
<path d="M42.1364 45C41.9545 42.7273 41.1023 40.9545 39.5795 39.6818C38.0795 38.4091 35.7955 37.7727 32.7273 37.7727C30.7727 37.7727 29.1705 38.0114 27.9205 38.4886C26.6932 38.9432 25.7841 39.5682 25.1932 40.3636C24.6023 41.1591 24.2955 42.0682 24.2727 43.0909C24.2273 43.9318 24.375 44.6932 24.7159 45.375C25.0795 46.0341 25.6477 46.6364 26.4205 47.1818C27.1932 47.7045 28.1818 48.1818 29.3864 48.6136C30.5909 49.0455 32.0227 49.4318 33.6818 49.7727L39.4091 51C43.2727 51.8182 46.5795 52.8977 49.3295 54.2386C52.0795 55.5795 54.3295 57.1591 56.0795 58.9773C57.8295 60.7727 59.1136 62.7955 59.9318 65.0455C60.7727 67.2955 61.2045 69.75 61.2273 72.4091C61.2045 77 60.0568 80.8864 57.7841 84.0682C55.5114 87.25 52.2614 89.6705 48.0341 91.3295C43.8295 92.9886 38.7727 93.8182 32.8636 93.8182C26.7955 93.8182 21.5 92.9205 16.9773 91.125C12.4773 89.3295 8.97727 86.5682 6.47727 82.8409C4 79.0909 2.75 74.2955 2.72727 68.4545H20.7273C20.8409 70.5909 21.375 72.3864 22.3295 73.8409C23.2841 75.2955 24.625 76.3977 26.3523 77.1477C28.1023 77.8977 30.1818 78.2727 32.5909 78.2727C34.6136 78.2727 36.3068 78.0227 37.6705 77.5227C39.0341 77.0227 40.0682 76.3295 40.7727 75.4432C41.4773 74.5568 41.8409 73.5455 41.8636 72.4091C41.8409 71.3409 41.4886 70.4091 40.8068 69.6136C40.1477 68.7955 39.0568 68.0682 37.5341 67.4318C36.0114 66.7727 33.9545 66.1591 31.3636 65.5909L24.4091 64.0909C18.2273 62.75 13.3523 60.5114 9.78409 57.375C6.23864 54.2159 4.47727 49.9091 4.5 44.4545C4.47727 40.0227 5.65909 36.1477 8.04545 32.8295C10.4545 29.4886 13.7841 26.8864 18.0341 25.0227C22.3068 23.1591 27.2045 22.2273 32.7273 22.2273C38.3636 22.2273 43.2386 23.1705 47.3523 25.0568C51.4659 26.9432 54.6364 29.6023 56.8636 33.0341C59.1136 36.4432 60.25 40.4318 60.2727 45H42.1364ZM106.074 45C105.892 42.7273 105.04 40.9545 103.517 39.6818C102.017 38.4091 99.733 37.7727 96.6648 37.7727C94.7102 37.7727 93.108 38.0114 91.858 38.4886C90.6307 38.9432 89.7216 39.5682 89.1307 40.3636C88.5398 41.1591 88.233 42.0682 88.2102 43.0909C88.1648 43.9318 88.3125 44.6932 88.6534 45.375C89.017 46.0341 89.5852 46.6364 90.358 47.1818C91.1307 47.7045 92.1193 48.1818 93.3239 48.6136C94.5284 49.0455 95.9602 49.4318 97.6193 49.7727L103.347 51C107.21 51.8182 110.517 52.8977 113.267 54.2386C116.017 55.5795 118.267 57.1591 120.017 58.9773C121.767 60.7727 123.051 62.7955 123.869 65.0455C124.71 67.2955 125.142 69.75 125.165 72.4091C125.142 77 123.994 80.8864 121.722 84.0682C119.449 87.25 116.199 89.6705 111.972 91.3295C107.767 92.9886 102.71 93.8182 96.8011 93.8182C90.733 93.8182 85.4375 92.9205 80.9148 91.125C76.4148 89.3295 72.9148 86.5682 70.4148 82.8409C67.9375 79.0909 66.6875 74.2955 66.6648 68.4545H84.6648C84.7784 70.5909 85.3125 72.3864 86.267 73.8409C87.2216 75.2955 88.5625 76.3977 90.2898 77.1477C92.0398 77.8977 94.1193 78.2727 96.5284 78.2727C98.5511 78.2727 100.244 78.0227 101.608 77.5227C102.972 77.0227 104.006 76.3295 104.71 75.4432C105.415 74.5568 105.778 73.5455 105.801 72.4091C105.778 71.3409 105.426 70.4091 104.744 69.6136C104.085 68.7955 102.994 68.0682 101.472 67.4318C99.9489 66.7727 97.892 66.1591 95.3011 65.5909L88.3466 64.0909C82.1648 62.75 77.2898 60.5114 73.7216 57.375C70.1761 54.2159 68.4148 49.9091 68.4375 44.4545C68.4148 40.0227 69.5966 36.1477 71.983 32.8295C74.392 29.4886 77.7216 26.8864 81.9716 25.0227C86.2443 23.1591 91.142 22.2273 96.6648 22.2273C102.301 22.2273 107.176 23.1705 111.29 25.0568C115.403 26.9432 118.574 29.6023 120.801 33.0341C123.051 36.4432 124.188 40.4318 124.21 45H106.074Z" fill="url(#paint0_linear_1_17)"/>
<defs>
<linearGradient id="paint0_linear_1_17" x1="64" y1="0" x2="64" y2="116" gradientUnits="userSpaceOnUse">
<stop offset="0.288462" stop-color="#955F5F"/>
<stop offset="0.706731" stop-color="#625E5E"/>
</linearGradient>
</defs>
</svg>
